<svg width="61" height="12" viewBox="0 0 61 12" fill="none" xmlns="http://www.w3.org/2000/svg">
<path d="M6.09231 0L7.81117 3.67003L11.8864 4.1459L8.87349 6.88997L9.67328 10.8541L6.09231 8.88L2.51134 10.8541L3.31113 6.88997L0.298179 4.1459L4.37344 3.67003L6.09231 0Z" fill="#F0B429"/>
<path d="M18.2769 0L19.9957 3.67003L24.071 4.1459L21.0581 6.88997L21.8578 10.8541L18.2769 8.88L14.6959 10.8541L15.4957 6.88997L12.4827 4.1459L16.558 3.67003L18.2769 0Z" fill="#F0B429"/>
<path d="M30.4614 0L32.1803 3.67003L36.2556 4.1459L33.2426 6.88997L34.0424 10.8541L30.4614 8.88L26.8805 10.8541L27.6803 6.88997L24.6673 4.1459L28.7426 3.67003L30.4614 0Z" fill="#F0B429"/>
<path d="M42.646 0L44.3649 3.67003L48.4401 4.1459L45.4272 6.88997L46.227 10.8541L42.646 8.88L39.065 10.8541L39.8648 6.88997L36.8519 4.1459L40.9272 3.67003L42.646 0Z" fill="#F0B429"/>
<path d="M54.8306 0.589431L56.3231 3.77607L56.3821 3.90219L56.5205 3.91834L60.0507 4.33057L57.4434 6.70514L57.3387 6.80053L57.3667 6.93941L58.0598 10.3747L54.9513 8.66106L54.8306 8.59453L54.7099 8.66106L51.6014 10.3747L52.2945 6.93941L52.3225 6.80053L52.2177 6.70514L49.6105 4.33057L53.1407 3.91834L53.2791 3.90219L53.3381 3.77607L54.8306 0.589431Z" stroke="#F0B429" stroke-width="0.5"/>
<path fill-rule="evenodd" clip-rule="evenodd" d="M54.8303 0L53.1114 3.67003L49.0361 4.1459L52.0491 6.88997L51.2493 10.8541L54.8303 8.88V0Z" fill="#F0B429"/>
</svg>
