<svg width="13" height="15" viewBox="0 0 13 15" fill="none" xmlns="http://www.w3.org/2000/svg">
<path fill-rule="evenodd" clip-rule="evenodd" d="M2.70833 5.89286C1.81087 5.89286 1.08333 6.6124 1.08333 7.5C1.08333 8.3876 1.81087 9.10714 2.70833 9.10714C3.6058 9.10714 4.33333 8.3876 4.33333 7.5C4.33333 6.6124 3.6058 5.89286 2.70833 5.89286ZM0 7.5C0 6.02067 1.21256 4.82143 2.70833 4.82143C4.2041 4.82143 5.41667 6.02067 5.41667 7.5C5.41667 8.97933 4.2041 10.1786 2.70833 10.1786C1.21256 10.1786 0 8.97933 0 7.5Z" fill="#92A5B5"/>
<path fill-rule="evenodd" clip-rule="evenodd" d="M10.2917 10.7143C9.3942 10.7143 8.66667 11.4338 8.66667 12.3214C8.66667 13.209 9.3942 13.9286 10.2917 13.9286C11.1891 13.9286 11.9167 13.209 11.9167 12.3214C11.9167 11.4338 11.1891 10.7143 10.2917 10.7143ZM7.58333 12.3214C7.58333 10.8421 8.7959 9.64286 10.2917 9.64286C11.7874 9.64286 13 10.8421 13 12.3214C13 13.8008 11.7874 15 10.2917 15C8.7959 15 7.58333 13.8008 7.58333 12.3214Z" fill="#92A5B5"/>
<path fill-rule="evenodd" clip-rule="evenodd" d="M10.2917 1.07143C9.3942 1.07143 8.66667 1.79097 8.66667 2.67857C8.66667 3.56617 9.3942 4.28571 10.2917 4.28571C11.1891 4.28571 11.9167 3.56617 11.9167 2.67857C11.9167 1.79097 11.1891 1.07143 10.2917 1.07143ZM7.58333 2.67857C7.58333 1.19924 8.7959 0 10.2917 0C11.7874 0 13 1.19924 13 2.67857C13 4.15791 11.7874 5.35714 10.2917 5.35714C8.7959 5.35714 7.58333 4.15791 7.58333 2.67857Z" fill="#92A5B5"/>
<path fill-rule="evenodd" clip-rule="evenodd" d="M8.926 3.54744C9.08773 3.79635 9.01481 4.12779 8.76314 4.28774L4.82252 6.7922C4.57085 6.95215 4.23572 6.88004 4.074 6.63113C3.91227 6.38223 3.98519 6.05079 4.23686 5.89084L8.17748 3.38637C8.42915 3.22642 8.76428 3.29854 8.926 3.54744Z" fill="#92A5B5"/>
<path fill-rule="evenodd" clip-rule="evenodd" d="M4.074 8.36887C4.23572 8.11997 4.57085 8.04785 4.82252 8.2078L8.76314 10.7123C9.01481 10.8722 9.08773 11.2037 8.926 11.4526C8.76428 11.7015 8.42915 11.7736 8.17748 11.6136L4.23686 9.10916C3.98519 8.94921 3.91227 8.61777 4.074 8.36887Z" fill="#92A5B5"/>
</svg>
