<svg width="4" height="49" viewBox="0 0 4 49" fill="none" xmlns="http://www.w3.org/2000/svg">
<path d="M0.856 1.832C0.856 1.48 0.976 1.184 1.216 0.943999C1.456 0.703999 1.752 0.583999 2.104 0.583999C2.456 0.583999 2.752 0.703999 2.992 0.943999C3.232 1.184 3.352 1.48 3.352 1.832C3.352 2.184 3.232 2.48 2.992 2.72C2.752 2.96 2.456 3.08 2.104 3.08C1.752 3.08 1.456 2.96 1.216 2.72C0.976 2.48 0.856 2.184 0.856 1.832ZM0.856 7.50387C0.856 7.15187 0.976 6.85587 1.216 6.61587C1.456 6.37587 1.752 6.25587 2.104 6.25587C2.456 6.25587 2.752 6.37587 2.992 6.61587C3.232 6.85587 3.352 7.15187 3.352 7.50387C3.352 7.85587 3.232 8.15187 2.992 8.39187C2.752 8.63187 2.456 8.75187 2.104 8.75187C1.752 8.75187 1.456 8.63187 1.216 8.39187C0.976 8.15187 0.856 7.85587 0.856 7.50387ZM0.855999 13.1757C0.855999 12.8237 0.975999 12.5277 1.216 12.2877C1.456 12.0477 1.752 11.9277 2.104 11.9277C2.456 11.9277 2.752 12.0477 2.992 12.2877C3.232 12.5277 3.352 12.8237 3.352 13.1757C3.352 13.5277 3.232 13.8237 2.992 14.0637C2.752 14.3037 2.456 14.4237 2.104 14.4237C1.752 14.4237 1.456 14.3037 1.216 14.0637C0.975999 13.8237 0.855999 13.5277 0.855999 13.1757ZM0.855999 18.8476C0.855999 18.4956 0.975999 18.1996 1.216 17.9596C1.456 17.7196 1.752 17.5996 2.104 17.5996C2.456 17.5996 2.752 17.7196 2.992 17.9596C3.232 18.1996 3.352 18.4956 3.352 18.8476C3.352 19.1996 3.232 19.4956 2.992 19.7356C2.752 19.9756 2.456 20.0956 2.104 20.0956C1.752 20.0956 1.456 19.9756 1.216 19.7356C0.975999 19.4956 0.855999 19.1996 0.855999 18.8476ZM0.855999 24.5195C0.855999 24.1675 0.975999 23.8715 1.216 23.6315C1.456 23.3915 1.752 23.2715 2.104 23.2715C2.456 23.2715 2.752 23.3915 2.992 23.6315C3.232 23.8715 3.352 24.1675 3.352 24.5195C3.352 24.8715 3.232 25.1675 2.992 25.4075C2.752 25.6475 2.456 25.7675 2.104 25.7675C1.752 25.7675 1.456 25.6475 1.216 25.4075C0.975999 25.1675 0.855999 24.8715 0.855999 24.5195ZM0.855999 30.1914C0.855999 29.8394 0.975999 29.5434 1.216 29.3034C1.456 29.0634 1.752 28.9434 2.104 28.9434C2.456 28.9434 2.752 29.0634 2.992 29.3034C3.232 29.5434 3.352 29.8394 3.352 30.1914C3.352 30.5434 3.232 30.8394 2.992 31.0794C2.752 31.3194 2.456 31.4394 2.104 31.4394C1.752 31.4394 1.456 31.3194 1.216 31.0794C0.975999 30.8394 0.855999 30.5434 0.855999 30.1914ZM0.855998 35.8632C0.855998 35.5112 0.975998 35.2152 1.216 34.9752C1.456 34.7352 1.752 34.6152 2.104 34.6152C2.456 34.6152 2.752 34.7352 2.992 34.9752C3.232 35.2152 3.352 35.5112 3.352 35.8632C3.352 36.2152 3.232 36.5112 2.992 36.7512C2.752 36.9912 2.456 37.1112 2.104 37.1112C1.752 37.1112 1.456 36.9912 1.216 36.7512C0.975998 36.5112 0.855998 36.2152 0.855998 35.8632ZM0.855998 41.5351C0.855998 41.1831 0.975998 40.8871 1.216 40.6471C1.456 40.4071 1.752 40.2871 2.104 40.2871C2.456 40.2871 2.752 40.4071 2.992 40.6471C3.232 40.8871 3.352 41.1831 3.352 41.5351C3.352 41.8871 3.232 42.1831 2.992 42.4231C2.752 42.6631 2.456 42.7831 2.104 42.7831C1.752 42.7831 1.456 42.6631 1.216 42.4231C0.975998 42.1831 0.855998 41.8871 0.855998 41.5351ZM0.855998 47.207C0.855998 46.855 0.975998 46.559 1.216 46.319C1.456 46.079 1.752 45.959 2.104 45.959C2.456 45.959 2.752 46.079 2.992 46.319C3.232 46.559 3.352 46.855 3.352 47.207C3.352 47.559 3.232 47.855 2.992 48.095C2.752 48.335 2.456 48.455 2.104 48.455C1.752 48.455 1.456 48.335 1.216 48.095C0.975998 47.855 0.855998 47.559 0.855998 47.207Z" fill="#74C3E7"/>
</svg>
