<svg width="72" height="72" viewBox="0 0 72 72" fill="none" xmlns="http://www.w3.org/2000/svg">
<circle cx="36" cy="36" r="35" fill="white" stroke="url(#paint0_linear_748_2435)" stroke-width="2"/>
<path d="M36 72C31.2724 72 26.5911 71.0688 22.2234 69.2597C17.8557 67.4505 13.8871 64.7988 10.5442 61.4558C7.20124 58.1129 4.5495 54.1443 2.74033 49.7766C0.931165 45.4089 -1.25866e-06 40.7276 0 36C1.25866e-06 31.2724 0.93117 26.5911 2.74034 22.2234C4.54951 17.8557 7.20125 13.8871 10.5442 10.5441C13.8871 7.20124 17.8557 4.5495 22.2234 2.74033C26.5911 0.931163 31.2724 -2.31066e-06 36 0L36 36V72Z" fill="white"/>
<defs>
<linearGradient id="paint0_linear_748_2435" x1="59.5" y1="2.30285e-06" x2="22" y2="77" gradientUnits="userSpaceOnUse">
<stop stop-color="#379CD3"/>
<stop offset="1" stop-color="#96CA2D"/>
</linearGradient>
</defs>
</svg>
