<svg width="16" height="18" viewBox="0 0 16 18" fill="none" xmlns="http://www.w3.org/2000/svg">
<path d="M15.9531 5.71554C15.9441 5.04231 15.8181 4.37578 15.5807 3.74576C15.3748 3.21434 15.0603 2.73171 14.6573 2.32872C14.2543 1.92573 13.7716 1.61123 13.2402 1.40532C12.6183 1.17186 11.9613 1.04562 11.2971 1.03198C10.442 0.99376 10.1709 0.983093 8.00023 0.983093C5.82956 0.983093 5.55134 0.983093 4.70245 1.03198C4.03859 1.04572 3.38187 1.17195 2.76023 1.40532C2.22872 1.61108 1.74602 1.92553 1.34301 2.32854C0.939998 2.73156 0.625549 3.21426 0.419781 3.74576C0.185853 4.36721 0.0598903 5.02408 0.0473364 5.68798C0.00911414 6.54398 -0.00244141 6.81509 -0.00244141 8.98576C-0.00244141 11.1564 -0.00244141 11.4338 0.0473364 12.2835C0.0606697 12.9484 0.186003 13.6044 0.419781 14.2275C0.625894 14.7589 0.940577 15.2414 1.34372 15.6442C1.74687 16.0471 2.22962 16.3614 2.76111 16.5671C3.38106 16.8099 4.03789 16.9452 4.70334 16.9671C5.55934 17.0053 5.83045 17.0169 8.00111 17.0169C10.1718 17.0169 10.45 17.0169 11.2989 16.9671C11.963 16.954 12.6201 16.8281 13.242 16.5946C13.7733 16.3885 14.2558 16.0739 14.6588 15.671C15.0617 15.268 15.3763 14.7855 15.5824 14.2542C15.8162 13.632 15.9416 12.976 15.9549 12.3102C15.9931 11.4551 16.0047 11.184 16.0047 9.01243C16.0029 6.84176 16.0029 6.56621 15.9531 5.71554ZM7.99489 13.0906C5.72467 13.0906 3.88556 11.2515 3.88556 8.98132C3.88556 6.71109 5.72467 4.87198 7.99489 4.87198C9.08476 4.87198 10.13 5.30493 10.9006 6.07558C11.6713 6.84623 12.1042 7.89145 12.1042 8.98132C12.1042 10.0712 11.6713 11.1164 10.9006 11.8871C10.13 12.6577 9.08476 13.0906 7.99489 13.0906ZM12.2678 5.6782C12.1419 5.67832 12.0173 5.65362 11.9009 5.6055C11.7846 5.55739 11.679 5.48681 11.59 5.39781C11.501 5.30881 11.4304 5.20313 11.3823 5.08682C11.3341 4.97051 11.3094 4.84585 11.3096 4.71998C11.3096 4.59421 11.3343 4.46966 11.3825 4.35346C11.4306 4.23725 11.5011 4.13167 11.5901 4.04273C11.679 3.95379 11.7846 3.88324 11.9008 3.83511C12.017 3.78698 12.1416 3.7622 12.2673 3.7622C12.3931 3.7622 12.5177 3.78698 12.6339 3.83511C12.7501 3.88324 12.8557 3.95379 12.9446 4.04273C13.0335 4.13167 13.1041 4.23725 13.1522 4.35346C13.2003 4.46966 13.2251 4.59421 13.2251 4.71998C13.2251 5.24976 12.7967 5.6782 12.2678 5.6782Z" fill="white"/>
<path d="M7.99502 11.6506C9.46925 11.6506 10.6644 10.4555 10.6644 8.98128C10.6644 7.50705 9.46925 6.31195 7.99502 6.31195C6.52078 6.31195 5.32568 7.50705 5.32568 8.98128C5.32568 10.4555 6.52078 11.6506 7.99502 11.6506Z" fill="white"/>
</svg>
