<svg width="230" height="63" viewBox="0 0 230 63" fill="none" xmlns="http://www.w3.org/2000/svg">
<path d="M74.2012 40.4517V39.7336C74.7996 39.7336 75.1586 39.4942 75.398 39.1352C75.6373 38.7761 75.757 38.0581 75.757 36.9809V25.7311C75.757 24.7736 75.6373 24.0556 75.398 23.5769C75.1586 23.0981 74.7996 22.9785 74.2012 22.9785V22.3801H86.6478H87.3659C88.2037 22.3801 88.6824 22.2604 89.0414 21.9013L90.4776 28.2444L89.7595 28.364C89.4005 27.0476 88.6824 25.9704 87.6053 25.2524C86.5282 24.5343 85.3314 24.0556 83.8952 24.0556C83.1771 24.0556 82.5787 24.1752 82.2197 24.2949C81.8607 24.4146 81.6213 24.7736 81.5016 25.013C81.3819 25.372 81.3819 25.8508 81.3819 26.5688V27.2869V28.1247H82.2197H82.9378C83.8952 28.1247 84.6133 28.005 85.092 27.7656C85.5707 27.5263 85.8101 26.9279 85.8101 25.9704L86.4085 25.8508L87.6053 32.7922H87.0069C86.6478 31.9544 86.2888 31.2363 85.6904 30.7576C85.3314 30.3986 84.8526 30.1592 84.4936 30.0395C84.1346 29.9199 83.5362 29.9199 82.9378 29.9199H82.2197H81.5016V35.1858C81.5016 35.3054 81.5016 35.5448 81.5016 35.9038C81.5016 36.8613 81.741 37.5793 82.2197 37.9384C82.6984 38.2974 83.2968 38.5368 84.2542 38.5368C87.3659 38.5368 89.8792 36.8613 91.5547 33.3906L92.1531 33.6299L89.7595 40.8107C89.5201 40.5713 88.9217 40.332 88.084 40.332H74.2012V40.4517Z" fill="#96CA2D"/>
<path d="M109.626 41.05C109.507 40.8107 109.267 40.691 109.148 40.691C108.908 40.691 108.669 40.5713 108.31 40.5713L104.36 40.8107C102.805 40.8107 101.368 40.5713 99.9322 40.2123C98.4961 39.8533 97.2993 39.1352 96.2222 38.2974C95.1451 37.4597 94.3073 36.3825 93.7089 35.1858C93.1105 33.989 92.7515 32.5528 92.7515 30.8773C92.7515 29.4411 92.9908 28.1247 93.5892 27.0476C94.0679 25.8508 94.786 24.8933 95.7435 24.1752C96.7009 23.4572 97.778 22.8588 98.9748 22.3801C100.172 22.021 101.488 21.7817 102.924 21.7817C104.121 21.7817 105.437 21.9013 106.874 22.1407C107.352 22.2604 107.592 22.2604 107.831 22.2604C108.429 22.2604 108.908 22.021 109.267 21.5423L110.823 29.3215L110.225 29.4411C109.866 28.4837 109.387 27.6459 108.789 26.8082C108.19 25.9704 107.472 25.372 106.634 24.7736C105.797 24.2949 104.839 24.0556 103.882 24.0556C102.805 24.0556 101.847 24.2949 101.009 24.8933C100.172 25.4917 99.6929 26.2098 99.2142 27.1672C98.7354 28.1247 98.6158 29.0821 98.6158 30.1592C98.6158 31.1167 98.7354 32.0741 98.9748 33.0315C99.2142 33.989 99.6929 34.8267 100.172 35.5448C100.77 36.3825 101.608 37.1006 102.565 37.5793C103.523 38.0581 104.48 38.2974 105.557 38.2974C106.754 38.2974 107.951 37.9384 108.908 37.34C109.866 36.6219 110.584 35.7841 111.062 34.5874L111.661 34.8267L109.626 41.05Z" fill="#96CA2D"/>
<path d="M115.371 38.4171C114.772 37.8187 114.174 37.1006 113.815 36.3826C113.336 35.6645 113.097 34.8267 112.858 33.989C112.618 33.1512 112.499 32.1938 112.499 31.356C112.499 29.9199 112.738 28.6034 113.217 27.4066C113.695 26.2098 114.413 25.2524 115.371 24.4146C116.328 23.5768 117.405 22.9785 118.602 22.4997C119.799 22.021 121.115 21.9013 122.552 21.9013C123.389 21.9013 124.347 22.021 125.185 22.1407C126.022 22.2604 126.86 22.6194 127.578 22.9785C128.416 23.3375 129.014 23.8162 129.613 24.2949C130.57 25.1327 131.288 26.2098 131.767 27.5263C132.246 28.8428 132.485 30.1592 132.485 31.5954C132.485 32.4331 132.365 33.2709 132.126 34.1086C131.887 34.9464 131.647 35.6645 131.169 36.5022C130.809 37.2203 130.211 37.9384 129.613 38.4171C128.775 39.2549 127.578 39.8533 126.262 40.332C124.945 40.8107 123.629 41.0501 122.312 41.0501C120.996 41.0501 119.56 40.8107 118.363 40.4517C117.166 40.0926 116.209 39.2549 115.371 38.4171ZM126.022 36.1432C126.381 35.1858 126.621 33.989 126.621 32.5528C126.621 30.5183 126.381 28.7231 125.903 27.4066C125.663 26.8082 125.424 26.3295 125.065 25.8508C124.706 25.372 124.347 25.013 123.748 24.654C123.15 24.2949 122.791 24.1752 122.193 24.1752C121.474 24.1752 120.996 24.4146 120.397 24.8933C119.919 25.372 119.44 25.8508 119.201 26.5688C118.722 27.5263 118.602 28.8427 118.602 30.2789C118.602 32.3135 118.842 33.989 119.44 35.4251C119.799 36.2629 120.278 36.9809 120.876 37.5793C121.474 38.1777 122.193 38.4171 123.03 38.4171C123.748 38.4171 124.347 38.1778 124.945 37.699C125.424 37.4597 125.783 36.8613 126.022 36.1432Z" fill="#96CA2D"/>
<path d="M153.189 36.6219C153.189 37.9384 153.309 38.6565 153.429 39.0155C153.548 39.2549 153.907 39.6139 154.506 39.7336V40.4516H145.65C143.974 40.4516 142.418 40.332 141.102 40.0926C139.785 39.8533 138.588 39.2549 137.511 38.4171C136.315 37.5793 135.477 36.3825 134.759 34.9464C134.041 33.5102 133.801 32.0741 133.801 30.6379C133.801 29.2018 134.041 27.8853 134.639 26.8082C135.118 25.7311 135.836 24.7736 136.793 24.0556C137.751 23.3375 138.828 22.7391 140.025 22.3801C141.221 22.021 142.538 21.7817 143.974 21.7817L148.282 22.1407C148.881 22.2604 149.24 22.2604 149.479 22.2604C150.078 22.2604 150.676 22.021 151.035 21.5423L151.873 28.005L151.274 28.1247C150.915 27.2869 150.437 26.5688 149.838 25.9704C149.24 25.372 148.522 24.7736 147.804 24.4146C146.966 24.0556 146.128 23.8162 145.29 23.8162C144.094 23.8162 143.017 24.1752 142.179 24.7736C141.341 25.372 140.743 26.3295 140.384 27.2869C140.025 28.2443 139.785 29.4411 139.785 30.6379C139.785 31.4757 139.905 32.4331 140.144 33.2709C140.384 34.1086 140.743 34.9464 141.221 35.7841C141.7 36.6219 142.299 37.2203 143.017 37.699C143.735 38.1777 144.572 38.4171 145.53 38.4171C146.487 38.4171 147.086 38.0581 147.445 37.4597C147.684 37.1006 147.804 36.3826 147.804 35.3054V32.7922C147.804 31.8347 147.684 31.1167 147.564 30.6379C147.325 30.1592 146.966 29.9199 146.248 29.9199V29.2018H155.104V29.9199C154.386 29.9199 153.907 30.1592 153.668 30.6379C153.429 30.997 153.309 31.5954 153.309 32.4331V33.2709V36.6219H153.189Z" fill="#359BD6"/>
<path d="M164.44 22.3801V23.0981C163.841 23.0981 163.482 23.3375 163.243 23.6965C163.004 24.1753 162.884 24.7737 162.884 25.8508V36.8613C162.884 37.2203 162.884 37.5794 163.004 37.8187C163.123 38.0581 163.243 38.2974 163.602 38.4171C163.961 38.5368 164.32 38.6565 164.918 38.6565C165.876 38.6565 166.833 38.4171 167.791 37.8187C168.748 37.2203 169.466 36.6219 170.184 35.7842C170.902 34.9464 171.381 33.989 171.74 33.0315L172.339 33.2709L170.065 40.9304C169.945 40.691 169.347 40.4517 168.269 40.4517H155.823V39.7336C156.421 39.7336 156.78 39.4942 157.02 39.1352C157.259 38.6565 157.379 38.0581 157.379 36.981V25.7311C157.379 24.7737 157.259 24.0556 157.02 23.5769C156.78 23.0981 156.421 22.9785 155.823 22.9785V22.3801H164.44Z" fill="#359BD6"/>
<path d="M178.083 36.3826C177.724 37.4597 177.604 38.1778 177.604 38.6565C177.604 39.3745 178.083 39.7336 178.921 39.8533V40.5713H172.817V39.8533C173.296 39.7336 173.655 39.4942 174.014 39.2549C174.373 39.0155 174.612 38.6565 174.732 38.2974C174.971 37.9384 175.091 37.4597 175.45 36.8613L179.758 25.4917C180.117 24.7737 180.237 24.2949 180.237 24.0556C180.237 23.6965 179.998 23.4572 179.639 23.3375V22.3801H187.657V23.0981C187.178 23.0981 187.059 23.3375 187.059 23.8162C187.059 23.9359 187.178 24.4146 187.537 25.2524C187.897 26.0901 188.136 27.2869 188.615 28.4837C189.093 29.8002 189.572 31.356 190.29 33.2709C190.888 35.1858 191.367 36.2629 191.487 36.6219C191.607 36.981 191.726 37.34 191.846 37.699C191.966 38.0581 192.085 38.2974 192.325 38.6565C192.444 38.8958 192.684 39.2549 192.923 39.3745C193.162 39.6139 193.402 39.7336 193.761 39.7336V40.4517H184.306V39.7336C184.785 39.7336 185.144 39.4942 185.383 39.2549C185.623 39.0155 185.742 38.6565 185.742 38.1778C185.742 37.5794 185.503 36.981 185.024 36.2629C184.545 35.6645 184.067 35.0661 183.468 34.7071C182.272 33.8693 180.955 33.5103 179.28 33.5103L178.083 36.3826ZM181.673 25.9705L179.998 31.1167C181.314 31.1167 182.511 31.5954 183.827 32.4331L181.673 25.9705Z" fill="#359BD6"/>
<path d="M209.2 40.9304C209.08 40.691 208.601 40.4517 207.764 40.4517H193.881L203.575 24.2949H202.617C201.899 24.2949 201.181 24.4146 200.344 24.654C199.506 24.8933 198.788 25.2524 198.189 25.6114C197.232 26.2098 196.394 27.1673 195.676 28.4837L195.197 28.364L196.753 21.7817C196.873 22.021 197.112 22.1407 197.352 22.1407C197.591 22.2604 197.95 22.2604 198.548 22.2604H211.713L201.899 38.4171H203.096C204.891 38.4171 206.447 37.9384 207.883 37.1007C209.32 36.2629 210.397 35.0661 211.234 33.5103L211.713 33.7496L209.2 40.9304Z" fill="#359BD6"/>
<path d="M211.833 40.4517V39.7336C212.431 39.7336 212.79 39.4942 213.029 39.1352C213.269 38.6565 213.388 38.0581 213.388 36.9809V25.7311C213.388 24.7736 213.269 24.0556 213.029 23.5769C212.79 23.0981 212.431 22.9785 211.833 22.9785V22.3801H224.279H224.997C225.835 22.3801 226.314 22.2604 226.673 21.9013L228.109 28.2444L227.391 28.364C227.032 27.0476 226.314 25.9704 225.237 25.2524C224.16 24.5343 222.963 24.0556 221.527 24.0556C220.808 24.0556 220.21 24.1752 219.851 24.2949C219.492 24.4146 219.253 24.7736 219.133 25.013C219.013 25.372 219.013 25.8508 219.013 26.5688V27.2869V28.1247H219.851H220.569C221.527 28.1247 222.245 28.005 222.723 27.7656C223.202 27.5263 223.441 26.9279 223.441 25.9704L224.04 25.8508L225.237 32.7922H224.638C224.279 31.9544 223.8 31.2363 223.322 30.7576C222.963 30.3986 222.484 30.1592 222.125 30.0395C221.646 29.9199 221.168 29.9199 220.569 29.9199H219.851H219.133V35.1858C219.133 35.3054 219.133 35.5448 219.133 35.9038C219.133 36.8613 219.372 37.5793 219.851 37.9384C220.33 38.2974 220.928 38.5368 221.886 38.5368C224.997 38.5368 227.511 36.8613 229.186 33.3906L229.784 33.6299L227.391 40.8107C227.151 40.5713 226.553 40.332 225.715 40.332H211.833V40.4517Z" fill="#359BD6"/>
<path fill-rule="evenodd" clip-rule="evenodd" d="M33.2754 1.45665C30.9084 7.1922 30.5442 7.92052 28.0861 11.5621C24.3535 17.2977 23.5341 18.7543 22.7147 21.6676C22.4416 22.8512 22.3506 23.2153 22.3506 25.1272C22.4416 27.4942 22.5327 28.0405 23.17 29.7702C24.1714 32.2283 26.0832 34.4133 28.4503 35.6879C33.1844 38.237 38.92 37.3266 42.5616 33.4119C46.3853 29.315 46.8405 23.7616 43.8361 17.7529C42.9257 16.0231 42.7437 15.659 39.9214 11.4711C38.0095 8.5578 37.0991 6.73699 34.9142 1.72977C34.55 0.819364 34.0948 0 34.0038 0C34.0038 0 33.6396 0.637284 33.2754 1.45665ZM34.459 7.73844C35.0963 9.10405 36.0067 10.5607 39.102 15.2948C41.4691 18.9364 42.6526 21.3945 42.9257 23.6705C43.1078 24.9451 43.0168 26.7659 42.7437 27.7673C42.1974 29.8613 40.7408 31.7731 39.011 32.8656C37.1902 33.9581 35.5515 34.4133 33.2754 34.3223C32.0919 34.2312 31.7278 34.1402 30.8174 33.776C29.5428 33.2298 28.4503 32.5014 27.4489 31.5C26.7205 30.6806 26.4474 30.4075 25.9012 29.1329C25.3549 28.0405 25.2639 27.7673 25.1728 26.4928C24.8997 24.1257 25.446 21.8497 26.6295 19.3006C27.3578 17.8439 27.5399 17.4798 29.7249 14.2023C30.7263 12.7457 31.5457 11.3801 31.7278 11.1069C32.365 10.1055 33.5486 7.92052 33.5486 7.82948C33.5486 7.6474 33.9127 7.1922 34.0948 7.1922C34.1858 7.10116 34.3679 7.37428 34.459 7.73844Z" fill="#359BD6"/>
<path fill-rule="evenodd" clip-rule="evenodd" d="M36.4614 17.2977C36.4614 17.3888 36.6435 17.7529 36.9166 18.2081C38.1912 20.3021 38.9195 22.396 39.1926 24.9451C39.2837 25.7645 39.4658 26.4928 39.4658 26.5838C39.7389 26.857 40.4672 24.581 40.4672 23.3974C40.4672 21.1214 39.1016 18.6633 37.0987 17.5708C36.4614 17.1156 36.4614 17.1156 36.4614 17.2977Z" fill="#359BD6"/>
<path fill-rule="evenodd" clip-rule="evenodd" d="M24.7175 7.01009C23.2608 7.19217 22.9877 7.19217 21.44 7.64737C15.6134 9.01298 10.06 12.5636 6.32731 17.1156C2.86777 21.3945 0.773844 26.3107 0.136561 31.591C-0.0455202 32.9566 -0.0455202 36.9624 0.136561 38.328C0.864884 43.9725 3.32298 49.4349 7.05563 53.6228C11.4256 58.539 17.1611 61.6344 23.716 62.7269C26.0831 63.091 30.1799 63.091 32.547 62.7269C36.0975 62.0896 39.6481 60.906 42.1973 59.2673C42.6525 58.9942 43.1077 58.7211 43.1077 58.7211C43.1077 58.7211 43.5629 58.448 44.1091 58.0838C50.0267 53.8959 53.9415 48.0693 55.5802 41.2413C56.2175 38.5101 56.3996 34.2312 56.1264 31.5C55.216 24.1257 51.3923 17.3887 45.5658 12.7456C43.6539 11.198 40.4675 9.2861 40.1944 9.55922C40.1944 9.55922 40.9227 10.8338 41.8331 12.1994C43.3808 14.5665 43.6539 14.9306 44.6553 15.75C50.3909 20.6662 53.6684 28.2225 53.3952 35.7789C53.2132 39.6936 52.3938 42.88 50.664 46.2485C48.1149 51.3468 44.2001 55.1705 39.1019 57.6286C37.099 58.63 35.3692 59.1763 33.0022 59.7225C31.3634 60.0867 31.0903 60.0867 28.177 60.0867C25.2637 60.0867 24.9906 60.0867 23.3519 59.7225C20.3475 59.0852 17.9805 58.1748 15.4314 56.7182C12.6091 55.0795 10.06 52.8034 8.14812 50.3454C7.78396 49.9812 7.51083 49.4349 7.32875 49.2529C6.41835 48.0693 4.9617 45.2471 4.32442 43.4263C3.86922 42.2427 3.32297 39.8757 3.04985 38.5101C2.77673 36.9624 2.86777 32.7745 3.14089 31.0448C3.41401 29.4971 3.41402 29.315 4.23338 26.8569C6.14523 20.8482 10.9704 15.2948 16.797 12.2904C17.8894 11.7442 20.1655 10.8338 21.349 10.4696C22.8056 10.1055 24.6264 9.7413 26.7204 9.55922L28.4501 9.37714L29.1785 8.10258C29.5426 7.37425 29.9068 6.82801 29.8158 6.73697C29.6337 6.82801 26.3562 6.82801 24.7175 7.01009Z" fill="#359BD6"/>
<path fill-rule="evenodd" clip-rule="evenodd" d="M48.7519 30.2254C47.2952 31.591 45.7476 32.7746 44.2909 33.685C43.5626 34.1402 42.7432 34.6864 42.4701 34.9595C41.2866 36.052 39.1016 37.2356 37.736 37.5997C35.8241 38.0549 33.275 38.237 31.6363 37.9639C29.9065 37.5997 27.8126 36.6893 26.3559 35.5968C25.4455 34.7775 23.9889 33.2298 23.4426 32.3194C22.8964 31.409 22.5322 31.2269 20.5293 30.6806C18.0712 30.0434 15.249 30.2254 12.7909 31.2269C9.96864 32.4104 7.69263 34.8685 6.60015 37.9639C6.23598 39.0564 6.0539 41.6055 6.23598 41.7876C6.32702 41.7876 6.60015 41.6055 6.96431 41.3324C11.0611 37.9639 16.2504 36.7804 21.8039 38.146C23.2605 38.5101 23.6247 38.6012 26.9932 39.9668C30.7259 41.4234 31.9094 41.6965 34.3675 41.6965C35.7331 41.6965 36.1883 41.6055 37.3718 41.3324C38.7374 40.9682 40.5582 40.3309 41.1045 39.9668C41.2866 39.8757 41.5597 39.7847 41.7418 39.6936C42.197 39.6026 42.288 39.8757 41.8328 40.2399C41.3776 40.604 39.8299 41.6055 39.2837 41.7876C39.0106 41.8786 38.7374 41.9697 38.6464 42.0607C38.3733 42.3338 35.9152 42.9711 34.8227 43.0621C34.1854 43.1532 33.184 43.1532 32.4556 43.1532C31.3632 43.0621 31.1811 43.0621 31.1811 43.2442C31.1811 43.3353 31.2721 43.5173 31.4542 43.6994C32.0915 44.2457 33.4571 46.5217 33.4571 46.9769C33.4571 47.341 33.184 47.159 32.3646 46.2486C31.3631 45.1561 29.5423 43.6084 27.9036 42.5159C26.9022 41.8786 26.3559 41.5145 24.9903 41.0593C22.8053 40.3309 20.5293 39.8757 20.2562 40.1488C20.2562 40.1488 20.5293 40.6951 20.9845 41.2413C22.2591 42.8801 23.4426 45.7023 23.4426 46.9769C23.4426 47.7052 23.0785 47.4321 22.4412 46.0665C21.5308 44.4277 20.7114 43.2442 19.71 42.1517C18.8906 41.2413 17.616 40.3309 17.2519 40.1488C16.8877 40.0578 14.8848 40.422 13.6103 40.7861C11.5163 41.4234 9.33136 42.8801 8.05679 44.2457C7.41951 44.974 7.41951 44.883 8.32992 46.5217C10.1507 49.7081 13.1551 52.6214 16.2504 54.5332C20.1652 56.9003 25.0814 57.9928 29.8155 57.5376C30.908 57.4465 31.9094 57.3555 32.0004 57.2645C32.1825 57.2645 32.7288 57.0824 33.366 56.9003C34.0033 56.8093 34.9137 56.5361 35.3689 56.3541C36.2793 55.9899 39.0106 54.8064 39.2837 54.6243C39.3747 54.5332 39.8299 54.2601 40.2851 53.896C43.0163 52.0751 45.3834 49.7081 47.1132 46.9769C47.8415 45.7934 49.116 43.1532 49.4802 41.8786C50.7548 37.9639 50.9369 33.776 50.0264 30.4075C49.8444 29.8613 49.7533 29.4061 49.6623 29.315C49.7533 29.315 49.2981 29.6792 48.7519 30.2254Z" fill="#96CA2D"/>
</svg>
