<svg width="18" height="19" viewBox="0 0 18 19" fill="none" xmlns="http://www.w3.org/2000/svg">
<path d="M12.0004 13.2925L13.5502 11.7419C13.759 11.5356 14.0231 11.3944 14.3105 11.3355C14.5979 11.2765 14.8962 11.3022 15.1692 11.4096L17.0581 12.1641C17.334 12.2762 17.5706 12.4675 17.738 12.7138C17.9055 12.9602 17.9963 13.2507 17.999 13.5486V17.0098C17.9974 17.2124 17.9548 17.4127 17.8738 17.5985C17.7928 17.7842 17.6751 17.9517 17.5277 18.0907C17.3803 18.2298 17.2064 18.3376 17.0163 18.4076C16.8261 18.4776 16.6238 18.5083 16.4215 18.4981C3.18591 17.6743 0.515261 6.46015 0.0101906 2.16831C-0.0132551 1.95755 0.00816663 1.74421 0.0730465 1.54233C0.137926 1.34045 0.244794 1.1546 0.386619 0.997007C0.528443 0.839416 0.702011 0.713655 0.895903 0.627997C1.0898 0.542339 1.29962 0.498727 1.51157 0.500028H4.85334C5.15154 0.500911 5.44266 0.591034 5.68926 0.758805C5.93585 0.926576 6.12665 1.16432 6.23709 1.44146L6.99124 3.33126C7.10211 3.60335 7.1304 3.9021 7.07257 4.19019C7.01473 4.47827 6.87334 4.74292 6.66606 4.95108L5.11625 6.50168C5.11625 6.50168 6.00877 12.5449 12.0004 13.2925Z" fill="white"/>
</svg>
