<svg width="18" height="16" viewBox="0 0 18 16" fill="none" xmlns="http://www.w3.org/2000/svg">
<path d="M17.667 2.63124C17.0295 2.90624 16.3357 3.10416 15.6211 3.18124C16.363 2.74048 16.9186 2.04415 17.1836 1.2229C16.4874 1.63705 15.7248 1.92745 14.9295 2.08124C14.5971 1.72588 14.195 1.44278 13.7484 1.24959C13.3018 1.05639 12.8202 0.957247 12.3336 0.958322C10.3649 0.958322 8.78154 2.55416 8.78154 4.51249C8.78154 4.78749 8.81488 5.06249 8.86904 5.32707C5.92113 5.17291 3.29196 3.76457 1.54404 1.60832C1.22555 2.15231 1.05865 2.77171 1.06071 3.40207C1.06071 4.6354 1.68779 5.72291 2.64404 6.36249C2.08051 6.3403 1.53017 6.1854 1.03779 5.91041V5.95415C1.03779 7.68124 2.25863 9.11249 3.88571 9.44166C3.58021 9.52101 3.26593 9.56161 2.95029 9.56249C2.71904 9.56249 2.50029 9.53957 2.27946 9.50832C2.72946 10.9167 4.03988 11.9396 5.60029 11.9729C4.37946 12.9292 2.85029 13.4917 1.18988 13.4917C0.89196 13.4917 0.61696 13.4812 0.331543 13.4479C1.90654 14.4583 3.77529 15.0417 5.78779 15.0417C12.3211 15.0417 15.8961 9.62916 15.8961 4.93124C15.8961 4.77707 15.8961 4.62291 15.8857 4.46874C16.5774 3.96249 17.1836 3.33541 17.667 2.63124Z" fill="white"/>
</svg>
