<svg style="display: none;" aria-hidden="true" xmlns="http://www.w3.org/2000/svg" xmlns:xlink="http://www.w3.org/1999/xlink"><symbol fill="none" viewBox="0 0 12 30" id="arrow_af-bf" xmlns="http://www.w3.org/2000/svg"><path d="M11.57 14.41a1 1 0 0 1 0 1.18L1.808 28.974c-.57.782-1.808.379-1.808-.589V1.614c0-.968 1.238-1.371 1.808-.59l9.762 13.387Z" fill="#fff"/></symbol><symbol viewBox="0 0 11 18" id="arrow_slider" xmlns="http://www.w3.org/2000/svg"><path fill-rule="evenodd" clip-rule="evenodd" d="M7.586 9 .293 1.707 1.707.293 10.414 9l-8.707 8.707-1.414-1.414L7.586 9Z"/></symbol><symbol fill="none" viewBox="0 0 4 49" id="dotdotdot" xmlns="http://www.w3.org/2000/svg"><path d="M.856 1.832c0-.352.12-.648.36-.888s.536-.36.888-.36.648.12.888.36.36.536.36.888-.12.648-.36.888-.536.36-.888.36-.648-.12-.888-.36-.36-.536-.36-.888Zm0 5.672c0-.352.12-.648.36-.888s.536-.36.888-.36.648.12.888.36.36.536.36.888-.12.648-.36.888-.536.36-.888.36-.648-.12-.888-.36-.36-.536-.36-.888Zm0 5.672c0-.352.12-.648.36-.888s.536-.36.888-.36.648.12.888.36.36.536.36.888-.12.648-.36.888-.536.36-.888.36-.648-.12-.888-.36-.36-.536-.36-.888Zm0 5.672c0-.352.12-.648.36-.888s.536-.36.888-.36.648.12.888.36.36.536.36.888-.12.648-.36.888-.536.36-.888.36-.648-.12-.888-.36-.36-.536-.36-.888Zm0 5.672c0-.352.12-.648.36-.889.24-.24.536-.36.888-.36s.648.12.888.36.36.537.36.889-.12.648-.36.887c-.24.24-.536.36-.888.36s-.648-.12-.888-.36-.36-.535-.36-.887Zm0 5.671c0-.352.12-.648.36-.888s.536-.36.888-.36.648.12.888.36.36.536.36.888-.12.648-.36.888-.536.36-.888.36-.648-.12-.888-.36-.36-.536-.36-.888Zm0 5.672c0-.352.12-.648.36-.888s.536-.36.888-.36.648.12.888.36.36.536.36.888-.12.648-.36.888-.536.36-.888.36-.648-.12-.888-.36-.36-.536-.36-.888Zm0 5.672c0-.352.12-.648.36-.888s.536-.36.888-.36.648.12.888.36.36.536.36.888-.12.648-.36.888-.536.36-.888.36-.648-.12-.888-.36-.36-.536-.36-.888Zm0 5.672c0-.352.12-.648.36-.888s.536-.36.888-.36.648.12.888.36.36.536.36.888-.12.648-.36.888-.536.36-.888.36-.648-.12-.888-.36-.36-.536-.36-.888Z" fill="#74C3E7"/></symbol><symbol fill="none" viewBox="0 0 72 72" id="ellips1" xmlns="http://www.w3.org/2000/svg"><circle cx="36" cy="36" r="35" fill="#fff" stroke="url(#da)" stroke-width="2"/><path d="M72 36A36 36 0 1 1 36 0v36h36Z" fill="#fff"/><defs><linearGradient id="da" x1="36" y1="0" x2="57.5" y2="91" gradientUnits="userSpaceOnUse"><stop stop-color="#359BD6"/><stop offset="1" stop-color="#96CA2D"/></linearGradient></defs></symbol><symbol fill="none" viewBox="0 0 72 72" id="ellips2" xmlns="http://www.w3.org/2000/svg"><circle cx="36" cy="36" r="35" fill="#fff" stroke="url(#ea)" stroke-width="2"/><path d="M36 72a36.001 36.001 0 0 1 0-72v72Z" fill="#fff"/><defs><linearGradient id="ea" x1="59.5" y1="0" x2="22" y2="77" gradientUnits="userSpaceOnUse"><stop stop-color="#379CD3"/><stop offset="1" stop-color="#96CA2D"/></linearGradient></defs></symbol><symbol fill="none" viewBox="0 0 72 72" id="ellips3" xmlns="http://www.w3.org/2000/svg"><circle cx="36" cy="36" r="35" fill="#fff" stroke="url(#fa)" stroke-width="2"/><path d="M0 36A36 36 0 0 1 36 0v36H0Z" fill="#fff"/><defs><linearGradient id="fa" x1="53.5" y1="-5.5" x2="0" y2="55" gradientUnits="userSpaceOnUse"><stop stop-color="#389CD1"/><stop offset="1" stop-color="#96CA2D"/></linearGradient></defs></symbol><symbol fill="none" viewBox="0 0 72 72" id="ellips4" xmlns="http://www.w3.org/2000/svg"><circle cx="36" cy="36" r="35" fill="#fff" stroke="#96CA2D" stroke-width="2"/></symbol><symbol viewBox="0 0 20 16" id="icon" xmlns="http://www.w3.org/2000/svg"><path fill-rule="evenodd" clip-rule="evenodd" d="M2.5.5h15c.92 0 1.667.746 1.667 1.667v11.666c0 .92-.746 1.667-1.667 1.667h-15c-.92 0-1.667-.746-1.667-1.667V2.167C.833 1.247 1.58.5 2.5.5Zm0 5.515v7.818h15V6.015L10 9.765l-7.5-3.75Zm0-1.863 7.5 3.75 7.5-3.75V2.167h-15v1.985Z"/></symbol><symbol fill="none" viewBox="0 0 11 10" id="m_arrow" xmlns="http://www.w3.org/2000/svg"><path d="M1 9.167 9.334.833m0 0H1m8.334 0v8.334" stroke-width="1.5" stroke-linecap="round" stroke-linejoin="round"/></symbol><symbol fill="none" viewBox="0 0 9 16" id="m_facebook" xmlns="http://www.w3.org/2000/svg"><g filter="url(#ja)"><path d="M8.37209 8.84472L8.84302 6.06211H6.06977V4.12422C6.06977 3.32919 6.38372 2.73292 7.63953 2.73292H9V0.198758C8.26744 0.0993787 7.43023 0 6.69767 0C4.2907 0 2.61628 1.3913 2.61628 3.87578V6.06211H0V8.84472H2.61628V15.8509C3.19186 15.9503 3.76744 16 4.34302 16C4.9186 16 5.49419 15.9503 6.06977 15.8509V8.84472H8.37209Z" fill="#fff"/></g><defs><filter id="ja" x="0" y="0" width="16.546" height="24" filterUnits="userSpaceOnUse" color-interpolation-filters="sRGB"><feFlood flood-opacity="0" result="BackgroundImageFix"/><feColorMatrix in="SourceAlpha" values="0 0 0 0 0 0 0 0 0 0 0 0 0 0 0 0 0 0 127 0" result="hardAlpha"/><feOffset dy="4"/><feGaussianBlur stdDeviation="2"/><feComposite in2="hardAlpha" operator="out"/><feColorMatrix values="0 0 0 0 0 0 0 0 0 0 0 0 0 0 0 0 0 0 0.25 0"/><feBlend in2="BackgroundImageFix" result="effect1_dropShadow_26_539"/><feBlend in="SourceGraphic" in2="effect1_dropShadow_26_539" result="shape"/></filter></defs></symbol><symbol fill="none" viewBox="0 0 16 18" id="m_instagram" xmlns="http://www.w3.org/2000/svg"><path d="M15.953 5.716a5.806 5.806 0 0 0-.372-1.97 4.097 4.097 0 0 0-2.34-2.34 5.872 5.872 0 0 0-1.944-.374C10.442.994 10.171.983 8 .983c-2.17 0-2.449 0-3.298.049-.663.014-1.32.14-1.942.373a4.095 4.095 0 0 0-2.34 2.34 5.826 5.826 0 0 0-.373 1.943c-.038.856-.05 1.127-.05 3.298 0 2.17 0 2.448.05 3.297.014.665.139 1.321.373 1.944a4.097 4.097 0 0 0 2.341 2.34c.62.243 1.277.378 1.942.4.856.038 1.127.05 3.298.05 2.17 0 2.449 0 3.298-.05a5.857 5.857 0 0 0 1.943-.372 4.103 4.103 0 0 0 2.34-2.34c.234-.623.36-1.279.373-1.945.038-.855.05-1.126.05-3.298-.002-2.17-.002-2.446-.052-3.296ZM7.995 13.09c-2.27 0-4.11-1.84-4.11-4.11a4.108 4.108 0 1 1 4.11 4.11Zm4.273-7.413a.958.958 0 1 1-.002-1.915.958.958 0 0 1 .002 1.915Z" fill="#fff"/><path d="M7.995 11.65a2.67 2.67 0 1 0 0-5.338 2.67 2.67 0 0 0 0 5.339Z" fill="#fff"/></symbol><symbol fill="none" viewBox="0 0 230 63" id="m_logo" xmlns="http://www.w3.org/2000/svg"><path d="M74.201 40.452v-.718c.599 0 .958-.24 1.197-.599.24-.359.359-1.077.359-2.154V25.73c0-.957-.12-1.675-.359-2.154-.24-.479-.598-.599-1.197-.599v-.598h13.165c.838 0 1.316-.12 1.675-.479l1.437 6.343-.718.12c-.36-1.316-1.078-2.394-2.155-3.112-1.077-.718-2.274-1.196-3.71-1.196-.718 0-1.316.12-1.675.239-.36.12-.599.479-.718.718-.12.359-.12.838-.12 1.556v1.556h1.556c.957 0 1.675-.12 2.154-.36.479-.239.718-.837.718-1.795l.599-.12 1.196 6.942h-.598c-.36-.838-.718-1.556-1.317-2.034-.359-.36-.837-.599-1.196-.718-.36-.12-.958-.12-1.556-.12h-1.436v5.984c0 .957.239 1.675.718 2.034.478.36 1.077.599 2.034.599 3.112 0 5.625-1.676 7.3-5.146l.6.239-2.394 7.18c-.24-.239-.838-.478-1.676-.478H74.201v.12ZM109.626 41.05c-.119-.24-.359-.359-.478-.359-.24 0-.479-.12-.838-.12l-3.95.24c-1.555 0-2.992-.24-4.428-.599s-2.633-1.077-3.71-1.915c-1.077-.837-1.915-1.914-2.513-3.111-.599-1.197-.958-2.633-.958-4.309 0-1.436.24-2.752.838-3.83.479-1.196 1.197-2.154 2.154-2.872a14.05 14.05 0 0 1 3.232-1.795 13.665 13.665 0 0 1 3.949-.598c1.197 0 2.513.12 3.95.359.478.12.718.12.957.12.598 0 1.077-.24 1.436-.719l1.556 7.78-.598.12c-.359-.958-.838-1.796-1.436-2.634-.599-.838-1.317-1.436-2.155-2.034a5.556 5.556 0 0 0-2.752-.718c-1.077 0-2.035.239-2.873.837-.837.599-1.316 1.317-1.795 2.274-.479.958-.598 1.915-.598 2.992 0 .958.12 1.915.359 2.873.24.957.718 1.795 1.197 2.513a6.593 6.593 0 0 0 2.393 2.034 6.49 6.49 0 0 0 2.992.718 6.432 6.432 0 0 0 3.351-.957c.958-.718 1.676-1.556 2.154-2.753l.599.24-2.035 6.223ZM115.371 38.417c-.599-.598-1.197-1.316-1.556-2.034-.479-.719-.718-1.556-.957-2.394a9.942 9.942 0 0 1-.359-2.633c0-1.436.239-2.753.718-3.95.478-1.196 1.196-2.154 2.154-2.991.957-.838 2.034-1.436 3.231-1.915 1.197-.479 2.513-.599 3.95-.599.837 0 1.795.12 2.633.24.837.12 1.675.478 2.393.838.838.358 1.436.837 2.035 1.316.957.838 1.675 1.915 2.154 3.231.479 1.317.718 2.633.718 4.07 0 .837-.12 1.675-.359 2.513-.239.837-.479 1.555-.957 2.393a6.108 6.108 0 0 1-1.556 1.915c-.838.838-2.035 1.436-3.351 1.915a11.493 11.493 0 0 1-3.95.718c-1.316 0-2.752-.24-3.949-.598-1.197-.36-2.154-1.197-2.992-2.035Zm10.651-2.274c.359-.957.599-2.154.599-3.59 0-2.035-.24-3.83-.718-5.146-.24-.599-.479-1.078-.838-1.556a4.261 4.261 0 0 0-1.317-1.197c-.598-.36-.957-.479-1.555-.479-.719 0-1.197.24-1.796.718-.478.479-.957.958-1.196 1.676-.479.957-.599 2.274-.599 3.71 0 2.034.24 3.71.838 5.146a6.796 6.796 0 0 0 1.436 2.154c.598.599 1.317.838 2.154.838.718 0 1.317-.24 1.915-.718.479-.24.838-.838 1.077-1.556Z" fill="#96CA2D"/><path d="M153.189 36.622c0 1.316.12 2.035.24 2.394.119.239.478.598 1.077.718v.718h-8.856c-1.676 0-3.232-.12-4.548-.36-1.317-.239-2.514-.837-3.591-1.675-1.196-.838-2.034-2.035-2.752-3.47-.718-1.437-.958-2.873-.958-4.31 0-1.435.24-2.752.838-3.829.479-1.077 1.197-2.034 2.154-2.752.958-.719 2.035-1.317 3.232-1.676a13.657 13.657 0 0 1 3.949-.598l4.308.359c.599.12.958.12 1.197.12.599 0 1.197-.24 1.556-.719l.838 6.463-.599.12a6.78 6.78 0 0 0-1.436-2.155c-.598-.598-1.316-1.196-2.034-1.555-.838-.36-1.676-.599-2.514-.599-1.196 0-2.273.36-3.111.958-.838.598-1.436 1.555-1.795 2.513a9.826 9.826 0 0 0-.599 3.35c0 .839.12 1.796.359 2.634.24.838.599 1.675 1.077 2.513a5.545 5.545 0 0 0 1.796 1.915c.718.479 1.555.718 2.513.718.957 0 1.556-.359 1.915-.957.239-.36.359-1.077.359-2.155v-2.513c0-.957-.12-1.675-.24-2.154-.239-.479-.598-.718-1.316-.718v-.718h8.856v.718c-.718 0-1.197.24-1.436.718-.239.359-.359.957-.359 1.795v4.188h-.12ZM164.44 22.38v.718c-.599 0-.958.24-1.197.599-.239.478-.359 1.077-.359 2.154v11.01c0 .36 0 .718.12.958.119.24.239.478.598.598s.718.24 1.316.24c.958 0 1.915-.24 2.873-.838.957-.599 1.675-1.197 2.393-2.035.718-.838 1.197-1.795 1.556-2.752l.599.239-2.274 7.66c-.12-.24-.718-.48-1.796-.48h-12.446v-.717c.598 0 .957-.24 1.197-.599.239-.478.359-1.077.359-2.154v-11.25c0-.957-.12-1.675-.359-2.154-.24-.479-.599-.599-1.197-.599v-.598h8.617ZM178.083 36.383c-.359 1.077-.479 1.795-.479 2.273 0 .718.479 1.078 1.317 1.197v.718h-6.104v-.718c.479-.12.838-.359 1.197-.598.359-.24.598-.599.718-.958.239-.359.359-.837.718-1.436l4.308-11.37c.359-.717.479-1.196.479-1.435 0-.36-.239-.599-.598-.719v-.957h8.018v.718c-.479 0-.598.24-.598.718 0 .12.119.599.478 1.436.36.838.599 2.035 1.078 3.232.478 1.316.957 2.872 1.675 4.787.598 1.915 1.077 2.992 1.197 3.35l.359 1.078c.12.36.239.598.479.958.119.239.359.598.598.718.239.239.479.359.838.359v.718h-9.455v-.718c.479 0 .838-.24 1.077-.48.24-.238.359-.597.359-1.076 0-.599-.239-1.197-.718-1.915-.479-.599-.957-1.197-1.556-1.556-1.196-.838-2.513-1.197-4.188-1.197l-1.197 2.873Zm3.59-10.413-1.675 5.147c1.316 0 2.513.478 3.829 1.316l-2.154-6.462ZM209.2 40.93c-.12-.239-.599-.478-1.436-.478h-13.883l9.694-16.157h-.958c-.718 0-1.436.12-2.273.359a8.992 8.992 0 0 0-2.155.957c-.957.599-1.795 1.556-2.513 2.873l-.479-.12 1.556-6.582c.12.239.359.359.599.359.239.12.598.12 1.196.12h13.165l-9.814 16.156h1.197c1.795 0 3.351-.479 4.787-1.316 1.437-.838 2.514-2.035 3.351-3.59l.479.239-2.513 7.18ZM211.833 40.452v-.718c.598 0 .957-.24 1.196-.599.24-.478.359-1.077.359-2.154V25.73c0-.957-.119-1.675-.359-2.154-.239-.479-.598-.599-1.196-.599v-.598h13.164c.838 0 1.317-.12 1.676-.479l1.436 6.343-.718.12c-.359-1.316-1.077-2.394-2.154-3.112s-2.274-1.196-3.71-1.196c-.719 0-1.317.12-1.676.239-.359.12-.598.479-.718.718-.12.359-.12.838-.12 1.556v1.556h1.556c.958 0 1.676-.12 2.154-.36.479-.239.718-.837.718-1.795l.599-.12 1.197 6.942h-.599c-.359-.838-.838-1.556-1.316-2.034-.359-.36-.838-.599-1.197-.718-.479-.12-.957-.12-1.556-.12h-1.436v5.984c0 .957.239 1.675.718 2.034.479.36 1.077.599 2.035.599 3.111 0 5.625-1.676 7.3-5.146l.598.239-2.393 7.18c-.24-.239-.838-.478-1.676-.478h-13.882v.12Z" fill="#359BD6"/><path fill-rule="evenodd" clip-rule="evenodd" d="M33.275 1.457c-2.367 5.735-2.73 6.464-5.189 10.105-3.732 5.736-4.552 7.192-5.371 10.106-.273 1.183-.364 1.547-.364 3.46.09 2.366.182 2.913.819 4.642 1.001 2.458 2.913 4.643 5.28 5.918 4.734 2.549 10.47 1.639 14.112-2.276 3.823-4.097 4.279-9.65 1.274-15.66-.91-1.729-1.092-2.093-3.915-6.28C38.01 8.557 37.1 6.736 34.914 1.73 34.55.82 34.094 0 34.004 0c0 0-.364.637-.729 1.457Zm1.184 6.281c.637 1.366 1.548 2.823 4.643 7.557 2.367 3.641 3.55 6.1 3.824 8.376.182 1.274.09 3.095-.182 4.096-.547 2.094-2.003 4.006-3.733 5.099-1.82 1.092-3.46 1.547-5.736 1.456-1.183-.09-1.547-.182-2.458-.546A10.491 10.491 0 0 1 27.45 31.5c-.729-.82-1.002-1.093-1.548-2.367-.546-1.092-.637-1.366-.728-2.64-.273-2.367.273-4.643 1.457-7.192.728-1.457.91-1.821 3.095-5.099 1.001-1.456 1.82-2.822 2.003-3.095.637-1.002 1.82-3.186 1.82-3.278 0-.182.365-.637.547-.637.09-.09.273.182.364.546Z" fill="#359BD6"/><path fill-rule="evenodd" clip-rule="evenodd" d="M36.461 17.298c0 .09.183.455.456.91 1.274 2.094 2.002 4.188 2.276 6.737.09.82.273 1.548.273 1.639.273.273 1.001-2.003 1.001-3.187 0-2.276-1.365-4.734-3.368-5.826-.638-.455-.638-.455-.638-.273Z" fill="#359BD6"/><path fill-rule="evenodd" clip-rule="evenodd" d="M24.718 7.01c-1.457.182-1.73.182-3.278.637-5.827 1.366-11.38 4.917-15.113 9.469C2.867 21.395.774 26.31.137 31.59c-.183 1.366-.183 5.371 0 6.737.728 5.644 3.186 11.107 6.919 15.295 4.37 4.916 10.105 8.011 16.66 9.104 2.367.364 6.464.364 8.831 0 3.55-.637 7.101-1.821 9.65-3.46l.91-.546s.456-.273 1.002-.637c5.918-4.188 9.832-10.015 11.471-16.843.638-2.73.82-7.01.546-9.741-.91-7.374-4.734-14.111-10.56-18.754-1.912-1.548-5.099-3.46-5.372-3.187 0 0 .729 1.275 1.64 2.64 1.547 2.367 1.82 2.732 2.821 3.551 5.736 4.916 9.013 12.473 8.74 20.029-.182 3.915-1.001 7.101-2.731 10.47-2.55 5.098-6.464 8.921-11.562 11.38-2.003 1.001-3.733 1.547-6.1 2.093-1.639.365-1.912.365-4.825.365-2.913 0-3.186 0-4.825-.365-3.005-.637-5.372-1.547-7.92-3.004-2.823-1.639-5.372-3.915-7.284-6.373-.364-.364-.637-.91-.82-1.092-.91-1.184-2.366-4.006-3.004-5.827-.455-1.183-1.001-3.55-1.274-4.916-.273-1.548-.182-5.735.09-7.465.274-1.548.274-1.73 1.093-4.188 1.912-6.009 6.737-11.562 12.564-14.567 1.092-.546 3.369-1.456 4.552-1.82a34.416 34.416 0 0 1 5.371-.91l1.73-.183.729-1.274c.364-.729.728-1.275.637-1.366-.182.091-3.46.091-5.098.273Z" fill="#359BD6"/><path fill-rule="evenodd" clip-rule="evenodd" d="M48.752 30.225a29.56 29.56 0 0 1-4.461 3.46c-.728.455-1.548 1.001-1.82 1.274-1.184 1.093-3.37 2.277-4.735 2.64-1.912.456-4.461.638-6.1.365-1.73-.364-3.823-1.275-5.28-2.367-.91-.82-2.367-2.367-2.913-3.278-.547-.91-.91-1.092-2.914-1.638-2.458-.638-5.28-.456-7.738.546-2.822 1.183-5.098 3.641-6.19 6.737-.365 1.092-.547 3.642-.365 3.824.091 0 .364-.182.728-.456 4.097-3.368 9.286-4.552 14.84-3.186 1.457.364 1.82.455 5.19 1.82 3.732 1.457 4.915 1.73 7.373 1.73 1.366 0 1.821-.09 3.005-.364 1.365-.364 3.186-1.001 3.733-1.365.182-.091.455-.182.637-.273.455-.091.546.182.09.546-.454.364-2.002 1.365-2.548 1.548-.273.09-.547.182-.638.273-.273.273-2.73.91-3.823 1.001-.638.091-1.639.091-2.367.091-1.093-.09-1.275-.09-1.275.091 0 .091.091.273.273.455.638.547 2.003 2.823 2.003 3.278 0 .364-.273.182-1.092-.728-1.002-1.093-2.823-2.64-4.461-3.733-1.002-.637-1.548-1.002-2.914-1.457-2.185-.728-4.46-1.183-4.734-.91 0 0 .273.546.729 1.092 1.274 1.64 2.458 4.461 2.458 5.736 0 .728-.365.455-1.002-.91-.91-1.64-1.73-2.823-2.731-3.915-.82-.91-2.094-1.821-2.458-2.003-.364-.091-2.367.273-3.642.637-2.094.637-4.279 2.094-5.553 3.46-.637.728-.637.637.273 2.276 1.82 3.186 4.825 6.1 7.92 8.011 3.915 2.367 8.831 3.46 13.566 3.005 1.092-.091 2.093-.182 2.184-.273.182 0 .729-.183 1.366-.365.637-.09 1.548-.364 2.003-.546.91-.364 3.642-1.548 3.915-1.73.09-.09.546-.364 1.001-.728 2.731-1.82 5.098-4.188 6.828-6.92.729-1.183 2.003-3.823 2.367-5.097 1.275-3.915 1.457-8.103.546-11.471-.182-.547-.273-1.002-.364-1.093.091 0-.364.364-.91.91Z" fill="#96CA2D"/></symbol><symbol fill="none" viewBox="0 0 10 16" id="m_t" xmlns="http://www.w3.org/2000/svg"><path d="M6.298 16c-3.395 0-4.687-2.504-4.687-4.274V6.498H0V4.432C2.42 3.557 3.008 1.368 3.14.119 3.15.034 3.217 0 3.255 0H5.6v4.076h3.2v2.422H5.588v4.98c.011.667.25 1.58 1.472 1.58h.06c.42-.013.99-.136 1.29-.279l.771 2.284c-.29.424-1.6.916-2.77.936h-.12l.008.001Z" fill="#fff"/></symbol><symbol viewBox="0 0 18 19" id="m_tel" xmlns="http://www.w3.org/2000/svg"><path d="m12 13.293 1.55-1.551a1.514 1.514 0 0 1 1.62-.332l1.888.754A1.509 1.509 0 0 1 18 13.55v3.46a1.503 1.503 0 0 1-1.577 1.49C3.186 17.673.515 6.46.01 2.168A1.503 1.503 0 0 1 1.512.5h3.341a1.494 1.494 0 0 1 1.384.941l.754 1.89a1.496 1.496 0 0 1-.325 1.62l-1.55 1.55S6.01 12.546 12 13.294Z" /></symbol><symbol fill="none" viewBox="0 0 18 16" id="m_twitter" xmlns="http://www.w3.org/2000/svg"><path d="M17.667 2.631a7.124 7.124 0 0 1-2.046.55 3.544 3.544 0 0 0 1.563-1.958 7.013 7.013 0 0 1-2.255.858A3.544 3.544 0 0 0 12.335.958a3.552 3.552 0 0 0-3.552 3.554c0 .275.033.55.087.815a10.096 10.096 0 0 1-7.325-3.719 3.527 3.527 0 0 0-.483 1.794c0 1.233.627 2.32 1.583 2.96a3.583 3.583 0 0 1-1.606-.452v.044a3.553 3.553 0 0 0 2.848 3.488c-.306.079-.62.12-.936.12-.231 0-.45-.022-.67-.054a3.559 3.559 0 0 0 3.32 2.465 7.12 7.12 0 0 1-4.41 1.519 7.27 7.27 0 0 1-.858-.044 10.06 10.06 0 0 0 5.456 1.594c6.533 0 10.108-5.413 10.108-10.11 0-.155 0-.31-.01-.463a7.652 7.652 0 0 0 1.781-1.838Z" fill="#fff"/></symbol><symbol fill="none" viewBox="0 0 80 80" id="play" xmlns="http://www.w3.org/2000/svg"><circle opacity=".5" cx="40" cy="40" r="40" fill="#96CA2D"/><circle cx="40" cy="40" r="32" fill="#96CA2D"/><path d="M34.666 50.844a1 1 0 0 0 1.614.79l13.372-10.4a1 1 0 0 0 0-1.579l-13.372-10.4a1 1 0 0 0-1.614.79v20.8Z" fill="#fff"/></symbol></svg>